<svg width="35" height="35" viewBox="0 0 35 35" fill="none" xmlns="http://www.w3.org/2000/svg">
<path d="M30.6454 17.5187C30.6454 24.4596 24.8908 30.0864 17.792 30.0864C15.0845 30.0864 12.5724 29.2679 10.5006 27.87L6.10715 28.9439L7.25844 24.7225C5.79654 22.6827 4.93866 20.1987 4.93866 17.5187C4.93866 10.5777 10.6933 4.95093 17.792 4.95093C24.8908 4.95093 30.6454 10.5777 30.6454 17.5187Z" fill="url(#paint0_linear_2_33)"/>
<path fill-rule="evenodd" clip-rule="evenodd" d="M17.7921 32.1812C26.0739 32.1812 32.7877 25.6167 32.7877 17.5188C32.7877 9.42101 26.0739 2.85645 17.7921 2.85645C9.51021 2.85645 2.79645 9.42101 2.79645 17.5188C2.79645 20.1485 3.50446 22.6165 4.74424 24.7505L2.79645 32.1812L10.6315 30.4048C12.7593 31.5375 15.1988 32.1812 17.7921 32.1812ZM17.7921 29.9255C24.7998 29.9255 30.4807 24.3709 30.4807 17.5188C30.4807 10.6668 24.7998 5.1122 17.7921 5.1122C10.7843 5.1122 5.10347 10.6668 5.10347 17.5188C5.10347 20.1644 5.95035 22.6166 7.3935 24.6303L6.25698 28.7976L10.5941 27.7374C12.6394 29.1174 15.1192 29.9255 17.7921 29.9255Z" fill="#CBB26A"/>
<path d="M14.0431 10.7112C13.6867 10.0109 13.1397 10.0729 12.5872 10.0729C11.5997 10.0729 10.0599 11.2295 10.0599 13.3819C10.0599 15.1459 10.8549 17.0768 13.5337 19.9654C16.119 22.7532 19.5159 24.1952 22.3359 24.1461C25.156 24.0971 25.7362 21.7242 25.7362 20.9229C25.7362 20.5677 25.5107 20.3905 25.3555 20.3424C24.3945 19.8914 22.622 19.0511 22.2188 18.8933C21.8155 18.7355 21.6049 18.949 21.474 19.0652C21.1083 19.4059 20.3834 20.4102 20.1351 20.6361C19.8869 20.862 19.5169 20.7477 19.3628 20.6623C18.7961 20.44 17.2596 19.7717 16.0349 18.6107C14.5201 17.1751 14.4312 16.6811 14.1459 16.2414C13.9176 15.8896 14.0851 15.6739 14.1687 15.5795C14.4951 15.2114 14.9457 14.6429 15.1478 14.3604C15.3498 14.0779 15.1895 13.649 15.0932 13.3819C14.6792 12.233 14.3284 11.2713 14.0431 10.7112Z" fill="#CBB26A"/>
<defs>
<linearGradient id="paint0_linear_2_33" x1="29.0388" y1="8.09287" x2="5.44365" y2="30.6155" gradientUnits="userSpaceOnUse">
<stop offset="1" stop-color="#171718"/>
</linearGradient>
</defs>
</svg>
